<svg width="197" height="57" viewBox="0 0 197 57" fill="none" xmlns="http://www.w3.org/2000/svg">
<path d="M-33.985 18.0946C-33.985 18.0946 -19.2287 10.0135 5.14924 10.0135C25.7113 10.0135 33.6934 19.6486 51.5797 19.6486C76.1215 19.6486 76.1215 3.48649 101.99 3.48649C124.542 3.48649 133.243 24 166.992 24C202.147 24 194.117 1 233.985 1" stroke="#5B38AD" stroke-width="2" stroke-linecap="round"/>
<path opacity="0.24" d="M167.5 24.2072C133.495 24.2072 124.728 3.50889 102.005 3.50889C75.9406 3.50889 75.9406 19.8167 51.2129 19.8167C33.191 19.8167 25.1485 10.0947 4.43069 10.0947C-20.1319 10.0947 -35 18.2486 -35 18.2486V57H235V1C194.83 1 202.921 24.2072 167.5 24.2072Z" fill="url(#paint0_linear_107_899)"/>
<defs>
<linearGradient id="paint0_linear_107_899" x1="100" y1="1" x2="100" y2="57" gradientUnits="userSpaceOnUse">
<stop stop-color="#5B38AD"/>
<stop offset="1" stop-color="#5B38AD" stop-opacity="0"/>
</linearGradient>
</defs>
</svg>
