<svg width="32" height="32" viewBox="0 0 32 32" fill="none" xmlns="http://www.w3.org/2000/svg">
<path d="M22.4 2.66669H18.9333C14.6667 2.66669 12 5.33335 12 9.60002V15H20.3333C20.88 15 21.3333 15.4534 21.3333 16C21.3333 16.5467 20.88 17 20.3333 17H12V22.4C12 26.6667 14.6667 29.3334 18.9333 29.3334H22.3867C26.6533 29.3334 29.32 26.6667 29.32 22.4V9.60002C29.3333 5.33335 26.6667 2.66669 22.4 2.66669Z" fill="#BABAC1"/>
<path d="M6.08001 15L8.84001 12.24C9.04001 12.04 9.13335 11.7867 9.13335 11.5333C9.13335 11.28 9.04001 11.0133 8.84001 10.8267C8.45335 10.44 7.81335 10.44 7.42668 10.8267L2.96001 15.2933C2.57335 15.68 2.57335 16.32 2.96001 16.7067L7.42668 21.1733C7.81335 21.56 8.45335 21.56 8.84001 21.1733C9.22668 20.7867 9.22668 20.1467 8.84001 19.76L6.08001 17H12V15H6.08001Z" fill="#BABAC1"/>
</svg>
